<svg width="16" height="24" viewBox="0 0 16 24" fill="none" xmlns="http://www.w3.org/2000/svg">
<path d="M4.2575 14.0625C3.71063 14.0625 3.24188 13.6094 3.2575 13.0469C3.24188 12.5 3.71063 12.0469 4.2575 12.0469C4.80438 12.0469 5.2575 12.5 5.2575 13.0469C5.2575 13.6094 4.80438 14.0625 4.2575 14.0625ZM8 14.0625C7.45313 14.0625 6.98438 13.6094 7 13.0469C6.98438 12.5 7.45313 12.0469 8 12.0469C8.54688 12.0469 9 12.5 9 13.0469C9 13.6094 8.54688 14.0625 8 14.0625ZM11.7425 14.0625C11.1956 14.0625 10.7269 13.6094 10.7425 13.0469C10.7269 12.5 11.1956 12.0469 11.7425 12.0469C12.2894 12.0469 12.7425 12.5 12.7425 13.0469C12.7425 13.6094 12.2894 14.0625 11.7425 14.0625Z" fill="white"/>
</svg>
