<svg width="24" height="24" viewBox="0 0 24 24" fill="none" xmlns="http://www.w3.org/2000/svg">
<path d="M21.1426 6.85725H8.57122M6.28551 6.85725H2.85693M21.1426 18.2858H8.57122M6.28551 18.2858H2.85693M15.4284 12.5715H2.85693M21.1426 12.5715H17.7141M7.42836 4.57153C7.73147 4.57153 8.02216 4.69194 8.23648 4.90627C8.45081 5.1206 8.57122 5.41129 8.57122 5.71439V8.0001C8.57122 8.30321 8.45081 8.5939 8.23648 8.80823C8.02216 9.02255 7.73147 9.14296 7.42836 9.14296C7.12526 9.14296 6.83457 9.02255 6.62024 8.80823C6.40591 8.5939 6.28551 8.30321 6.28551 8.0001V5.71439C6.28551 5.41129 6.40591 5.1206 6.62024 4.90627C6.83457 4.69194 7.12526 4.57153 7.42836 4.57153ZM7.42836 16.0001C7.73147 16.0001 8.02216 16.1205 8.23648 16.3348C8.45081 16.5492 8.57122 16.8399 8.57122 17.143V19.4287C8.57122 19.7318 8.45081 20.0225 8.23648 20.2368C8.02216 20.4511 7.73147 20.5715 7.42836 20.5715C7.12526 20.5715 6.83457 20.4511 6.62024 20.2368C6.40591 20.0225 6.28551 19.7318 6.28551 19.4287V17.143C6.28551 16.8399 6.40591 16.5492 6.62024 16.3348C6.83457 16.1205 7.12526 16.0001 7.42836 16.0001ZM16.5712 10.2858C16.8743 10.2858 17.165 10.4062 17.3793 10.6206C17.5937 10.8349 17.7141 11.1256 17.7141 11.4287V13.7144C17.7141 14.0175 17.5937 14.3082 17.3793 14.5225C17.165 14.7368 16.8743 14.8572 16.5712 14.8572C16.2681 14.8572 15.9774 14.7368 15.7631 14.5225C15.5488 14.3082 15.4284 14.0175 15.4284 13.7144V11.4287C15.4284 11.1256 15.5488 10.8349 15.7631 10.6206C15.9774 10.4062 16.2681 10.2858 16.5712 10.2858Z" stroke="currentColor" stroke-width="1.5" stroke-linecap="round" stroke-linejoin="round"/>
</svg>
