<svg width="16" height="16" viewBox="0 0 16 16" fill="none" xmlns="http://www.w3.org/2000/svg">
<path d="M11.3333 14C10.875 14 10.4828 13.8323 10.1567 13.4969C9.83055 13.1614 9.66722 12.7577 9.66666 12.2857V3.71429C9.66666 3.24286 9.83 2.83943 10.1567 2.504C10.4833 2.16857 10.8756 2.00057 11.3333 2C11.7911 1.99943 12.1836 2.16743 12.5108 2.504C12.838 2.84057 13.0011 3.244 13 3.71429V12.2857C13 12.7571 12.8369 13.1609 12.5108 13.4969C12.1847 13.8329 11.7922 14.0006 11.3333 14ZM4.66667 14C4.20833 14 3.81611 13.8323 3.49 13.4969C3.16389 13.1614 3.00056 12.7577 3 12.2857V3.71429C3 3.24286 3.16333 2.83943 3.49 2.504C3.81667 2.16857 4.20889 2.00057 4.66667 2C5.12444 1.99943 5.51694 2.16743 5.84417 2.504C6.17139 2.84057 6.33444 3.244 6.33333 3.71429V12.2857C6.33333 12.7571 6.17028 13.1609 5.84417 13.4969C5.51805 13.8329 5.12555 14.0006 4.66667 14Z" fill="black"/>
</svg>
