<svg width="16" height="16" viewBox="0 0 16 16" fill="none" xmlns="http://www.w3.org/2000/svg">
<path d="M7.99753 8.66426C8.36562 8.66426 8.66401 8.36586 8.66401 7.99778C8.66401 7.62969 8.36562 7.3313 7.99753 7.3313C7.62945 7.3313 7.33105 7.62969 7.33105 7.99778C7.33105 8.36586 7.62945 8.66426 7.99753 8.66426Z" stroke="currentColor" stroke-width="1.5" stroke-linecap="round" stroke-linejoin="round"/>
<path d="M7.99753 3.99897C8.36562 3.99897 8.66401 3.70058 8.66401 3.3325C8.66401 2.96441 8.36562 2.66602 7.99753 2.66602C7.62945 2.66602 7.33105 2.96441 7.33105 3.3325C7.33105 3.70058 7.62945 3.99897 7.99753 3.99897Z" stroke="currentColor" stroke-width="1.5" stroke-linecap="round" stroke-linejoin="round"/>
<path d="M7.99753 13.3295C8.36562 13.3295 8.66401 13.0311 8.66401 12.6631C8.66401 12.295 8.36562 11.9966 7.99753 11.9966C7.62945 11.9966 7.33105 12.295 7.33105 12.6631C7.33105 13.0311 7.62945 13.3295 7.99753 13.3295Z" stroke="currentColor" stroke-width="1.5" stroke-linecap="round" stroke-linejoin="round"/>
</svg>
