<svg width="16" height="16" viewBox="0 0 16 16" fill="none" xmlns="http://www.w3.org/2000/svg">
<g clip-path="url(#clip0_166_12640)">
<path d="M6.66504 8.66419C6.95126 9.04684 7.31643 9.36345 7.73577 9.59256C8.15512 9.82166 8.61883 9.95791 9.09546 9.99204C9.57208 10.0262 10.0505 9.95741 10.4982 9.7904C10.9459 9.62339 11.3525 9.36204 11.6903 9.02409L13.6897 7.02465C14.2968 6.39615 14.6326 5.55438 14.6251 4.68064C14.6175 3.80689 14.267 2.97109 13.6491 2.35323C13.0313 1.73538 12.1955 1.38492 11.3217 1.37732C10.448 1.36973 9.60622 1.70562 8.97772 2.31264L7.83138 3.45232" stroke="currentColor" stroke-width="1.5" stroke-linecap="round" stroke-linejoin="round"/>
<path d="M9.33074 7.33124C9.04452 6.94859 8.67935 6.63198 8.26001 6.40287C7.84067 6.17376 7.37695 6.03752 6.90032 6.00339C6.4237 5.96925 5.9453 6.03802 5.49759 6.20503C5.04988 6.37204 4.64332 6.63339 4.30549 6.97134L2.30605 8.97078C1.69903 9.59927 1.36314 10.441 1.37073 11.3148C1.37832 12.1885 1.72879 13.0243 2.34664 13.6422C2.9645 14.26 3.8003 14.6105 4.67405 14.6181C5.54779 14.6257 6.38956 14.2898 7.01806 13.6828L8.15774 12.5431" stroke="currentColor" stroke-width="1.5" stroke-linecap="round" stroke-linejoin="round"/>
</g>
<defs>
<clipPath id="clip0_166_12640">
<rect width="15.9955" height="15.9955" fill="white"/>
</clipPath>
</defs>
</svg>
