<svg width="16" height="16" viewBox="0 0 16 16" fill="none" xmlns="http://www.w3.org/2000/svg">
<path d="M10.6665 8.66676L14.1485 10.9881C14.1987 11.0215 14.257 11.0407 14.3172 11.0435C14.3775 11.0464 14.4373 11.0329 14.4905 11.0045C14.5437 10.976 14.5881 10.9337 14.6191 10.8819C14.6501 10.8302 14.6665 10.7711 14.6665 10.7108V5.24676C14.6665 5.18811 14.6511 5.13049 14.6217 5.07973C14.5923 5.02896 14.5501 4.98684 14.4992 4.95763C14.4484 4.92841 14.3907 4.91313 14.332 4.91333C14.2734 4.91353 14.2158 4.9292 14.1652 4.95876L10.6665 7.0001" stroke="currentColor" stroke-width="1.5" stroke-linecap="round" stroke-linejoin="round"/>
<path d="M9.3335 4H2.66683C1.93045 4 1.3335 4.59695 1.3335 5.33333V10.6667C1.3335 11.403 1.93045 12 2.66683 12H9.3335C10.0699 12 10.6668 11.403 10.6668 10.6667V5.33333C10.6668 4.59695 10.0699 4 9.3335 4Z" stroke="currentColor" stroke-width="1.5" stroke-linecap="round" stroke-linejoin="round"/>
</svg>
