<svg width="16" height="16" viewBox="0 0 16 16" fill="none" xmlns="http://www.w3.org/2000/svg">
<path d="M5.56087 3.05558C5.50448 3.0198 5.44024 3.00063 5.37468 3.00002C5.30912 2.9994 5.24458 3.01737 5.18761 3.05209C5.13064 3.08682 5.08328 3.13706 5.05033 3.19772C5.01738 3.25837 5.00001 3.32728 5 3.39745V12.6026C5.00001 12.6727 5.01738 12.7416 5.05033 12.8023C5.08328 12.8629 5.13064 12.9132 5.18761 12.9479C5.24458 12.9826 5.30912 13.0006 5.37468 13C5.44024 12.9994 5.50448 12.9802 5.56087 12.9444L12.8181 8.34186C12.8735 8.30666 12.9194 8.25664 12.9513 8.1967C12.9832 8.13676 13 8.06897 13 8C13 7.93103 12.9832 7.86324 12.9513 7.8033C12.9194 7.74336 12.8735 7.69334 12.8181 7.65814L5.56087 3.05558Z" fill="black" stroke="currentColor" stroke-linecap="round" stroke-linejoin="round"/>
</svg>
