<svg width="16" height="16" viewBox="0 0 16 16" fill="none" xmlns="http://www.w3.org/2000/svg">
<path d="M2.99805 7.9978C2.99805 8.98671 3.29129 9.95341 3.8407 10.7757C4.39011 11.5979 5.171 12.2388 6.08463 12.6172C6.99826 12.9956 8.00359 13.0947 8.9735 12.9017C9.9434 12.7088 10.8343 12.2326 11.5336 11.5333C12.2328 10.8341 12.709 9.94316 12.902 8.97325C13.0949 8.00335 12.9959 6.99801 12.6174 6.08438C12.239 5.17075 11.5981 4.38986 10.7759 3.84045C9.95365 3.29105 8.98695 2.9978 7.99805 2.9978C6.60024 3.00306 5.25858 3.54848 4.2536 4.52002L2.99805 5.77558" stroke="currentColor" stroke-width="1.5" stroke-linecap="round" stroke-linejoin="round"/>
<path d="M2.99805 2.9978V5.9978H5.99805" stroke="currentColor" stroke-width="1.5" stroke-linecap="round" stroke-linejoin="round"/>
</svg>
