<svg width="16" height="16" viewBox="0 0 16 16" fill="none" xmlns="http://www.w3.org/2000/svg">
<path fill-rule="evenodd" clip-rule="evenodd" d="M8.31607 2.19677C9.03793 1.67945 10 2.24263 10 3.18218V12.8177C10 13.7579 9.03793 14.3205 8.31607 13.8031L4.59193 11.1356C4.56674 11.1173 4.53718 11.1075 4.5069 11.1073H2.7069C2.2542 11.1073 1.82004 10.9118 1.49994 10.564C1.17983 10.2162 1 9.74437 1 9.25245V6.74745C1 6.25552 1.17983 5.78375 1.49994 5.4359C1.82004 5.08806 2.2542 4.89264 2.7069 4.89264H4.5069C4.53733 4.89275 4.56711 4.88314 4.59255 4.86499L8.31607 2.19677Z" fill="black"/>
<path d="M15 6.5L12 9.5" stroke="currentColor" stroke-width="1.5" stroke-linecap="round"/>
<path d="M15 9.5L12 6.5" stroke="currentColor" stroke-width="1.5" stroke-linecap="round"/>
</svg>
