<svg width="16" height="16" viewBox="0 0 16 16" fill="none" xmlns="http://www.w3.org/2000/svg">
<path d="M2.9978 7.99756C2.9978 8.98646 3.29105 9.95316 3.84045 10.7754C4.38986 11.5977 5.17075 12.2385 6.08438 12.617C6.99801 12.9954 8.00335 13.0944 8.97325 12.9015C9.94316 12.7086 10.8341 12.2324 11.5333 11.5331C12.2326 10.8338 12.7088 9.94291 12.9017 8.97301C13.0947 8.0031 12.9956 6.99777 12.6172 6.08414C12.2388 5.17051 11.5979 4.38962 10.7757 3.84021C9.95341 3.2908 8.98671 2.99756 7.9978 2.99756C6.6 3.00282 5.25834 3.54824 4.25336 4.51978L2.9978 5.77534" stroke="currentColor" stroke-width="1.5" stroke-linecap="round" stroke-linejoin="round"/>
<path d="M2.9978 2.99756V5.99756H5.9978" stroke="currentColor" stroke-width="1.5" stroke-linecap="round" stroke-linejoin="round"/>
</svg>
