<svg width="94" height="32" viewBox="0 0 94 32" fill="none" xmlns="http://www.w3.org/2000/svg">
<g clip-path="url(#clip0_584_7838)">
<path d="M57.1968 17.0762H47.7421C47.7421 17.0762 47.7303 9.83634 47.7421 8.44041C47.754 7.04448 47.9188 6.07969 48.893 5.10175C49.8672 4.12381 50.7808 3.95425 52.3851 3.95425H57.2206V8.44041H52.3851V12.6137H57.1968V17.0762ZM67.5941 17.0762H58.1394V3.95425H67.5941V8.44041H62.7824V12.6137H67.5941V17.0762ZM68.7304 25.7594H49.3926C49.3926 25.7594 47.4389 25.8619 46.9802 25.4111C46.5201 24.9602 46.6308 23.5406 46.6308 23.5406V21.3219H55.3117V17.9937H60.1471V21.3219H68.7304V25.7607V25.7594ZM71.2694 17.8478V8.92281H78.4989V7.23376H71.1007V3.76102H83.1181V12.2273H75.8887V14.1082L85.9234 13.288V3.59278C85.9234 3.59278 89.5302 3.44688 90.1683 4.55363C90.8063 5.65907 90.7602 8.75456 90.7602 8.75456H93.4204V13.0002H90.7602V17.5836H85.9247V16.7634L71.2721 17.8491L71.2694 17.8478Z" fill="#4F5BFF"/>
<path d="M81.5072 25.2319C82.5843 25.2319 83.5242 25.0479 84.2796 24.7259C85.035 24.3802 85.4252 23.9661 85.4252 23.4824C85.4252 22.9987 85.035 22.5847 84.2796 22.239C83.5229 21.9169 82.5843 21.7329 81.5072 21.7329C80.4302 21.7329 79.514 21.9169 78.7573 22.239C77.9782 22.5847 77.6117 22.9987 77.6117 23.4824C77.6117 23.9661 77.9782 24.3802 78.7573 24.7259C79.514 25.0479 80.4302 25.2319 81.5072 25.2319ZM81.6668 28.3169C79.1238 28.3169 76.9473 27.8332 75.1373 26.8894C73.3273 25.9457 72.4111 24.8179 72.4111 23.4824C72.4111 22.147 73.3273 21.0192 75.1373 20.0754C76.9473 19.1317 79.1238 18.6479 81.6668 18.6479C84.2097 18.6479 86.4099 19.1317 88.2199 20.0754C90.0299 21.0192 90.9237 22.147 90.9237 23.4824C90.9237 24.8179 90.0299 25.9457 88.2199 26.8894C86.4099 27.8332 84.2334 28.3169 81.6668 28.3169Z" fill="#4F5BFF"/>
</g>
<path d="M16.648 2.5512C21.6965 3.96019 24.647 9.19505 23.238 14.2436C23.2249 14.2904 23.2113 14.337 23.1976 14.3834C21.6948 19.5842 18.4955 23.8431 14.371 26.7257C13.5251 27.3169 12.6397 26.0603 13.2398 25.2207C13.3813 25.0226 13.5195 24.8216 13.6542 24.6177C14.6292 23.1416 13.2496 21.3091 11.5456 20.8336C6.49708 19.4246 3.54665 14.1897 4.95564 9.14118C6.36462 4.09265 11.5995 1.14221 16.648 2.5512Z" fill="#5E82F7"/>
<path d="M31.7525 2.5512C36.801 3.96019 39.7515 9.19505 38.3425 14.2436C38.3294 14.2904 38.3158 14.337 38.3021 14.3834C36.7993 19.5842 33.6 23.8431 29.4755 26.7257C28.6296 27.3169 27.7442 26.0603 28.3443 25.2207C28.4858 25.0226 28.624 24.8216 28.7587 24.6177C29.7337 23.1416 28.3541 21.3091 26.6501 20.8336C21.6016 19.4246 18.6511 14.1897 20.0601 9.14118C21.4691 4.09265 26.704 1.14221 31.7525 2.5512Z" fill="#4F5BFF"/>
<defs>
<clipPath id="clip0_584_7838">
<rect width="46.7988" height="24.7442" fill="white" transform="translate(46.6191 3.58618)"/>
</clipPath>
</defs>
</svg>
