<svg width="41" height="32" viewBox="0 0 41 32" fill="none" xmlns="http://www.w3.org/2000/svg">
<path d="M16.648 2.5512C21.6965 3.96019 24.647 9.19505 23.238 14.2436C23.2249 14.2904 23.2113 14.337 23.1976 14.3834C21.6948 19.5842 18.4955 23.8431 14.371 26.7257C13.5251 27.3169 12.6397 26.0603 13.2398 25.2207C13.3813 25.0226 13.5195 24.8216 13.6542 24.6177C14.6292 23.1416 13.2496 21.3091 11.5456 20.8336C6.49708 19.4246 3.54665 14.1897 4.95564 9.14118C6.36462 4.09265 11.5995 1.14221 16.648 2.5512Z" fill="#5E82F7"/>
<path d="M31.7525 2.5512C36.801 3.96019 39.7515 9.19505 38.3425 14.2436C38.3294 14.2904 38.3158 14.337 38.3021 14.3834C36.7993 19.5842 33.6 23.8431 29.4755 26.7257C28.6296 27.3169 27.7442 26.0603 28.3443 25.2207C28.4858 25.0226 28.624 24.8216 28.7587 24.6177C29.7337 23.1416 28.3541 21.3091 26.6501 20.8336C21.6016 19.4246 18.6511 14.1897 20.0601 9.14118C21.4691 4.09265 26.704 1.14221 31.7525 2.5512Z" fill="#4F5BFF"/>
</svg>
